# xmcd
#
# Track frame offsets:
#	150
#	19922
#	39560
#	59132
#	79165
#	99067
#	119392
#	137867
#	157747
#	174007
#	193890
#	214265
#
# Disc length: 3115 seconds
#
# Revision: 1
# Processed by: cddbd v1.5.2PL0 Copyright (c) Steve Scherf et al.
# Submitted via: EasyCDDAExtractor 15.3.0.1
#
DISCID=9f0c290c
DTITLE=Grupo Mania - The Dynasty
DYEAR=1998
DGENRE=Latin
TTITLE0=Como Baila
TTITLE1=Niña Bonita
TTITLE2=Tu Y Yo (R&B)
TTITLE3=Pa'l Bailador
TTITLE4=Hermano Mio
TTITLE5=Que No La Dejaria
TTITLE6=Voy A Ganar Su Amor
TTITLE7=Bueno Pa' Gozar
TTITLE8=Ragga Mania (Reggae)
TTITLE9=Magia
TTITLE10=Ansias
TTITLE11=Lloro Por Ti (Salsa)
EXTD=YEAR: 1998\n
EXTT0=
EXTT1=
EXTT2=
EXTT3=
EXTT4=
EXTT5=
EXTT6=
EXTT7=
EXTT8=
EXTT9=
EXTT10=
EXTT11=
PLAYORDER=
